<svg id="visual" viewBox="0 0 2000 1500" width="2000" height="1500" xmlns="http://www.w3.org/2000/svg" xmlns:xlink="http://www.w3.org/1999/xlink" version="1.1">
    <path d="M0 289L181 439L363 348L544 364L726 452L907 452L1089 466L1270 484L1452 379L1633 289L1815 348L2000 410L2000 0L1815 0L1633 0L1452 0L1270 0L1089 0L907 0L726 0L544 0L363 0L181 0L0 0Z" fill="#003223"></path>
    <path d="M0 514L181 542L363 589L544 603L726 573L907 664L1089 648L1270 617L1452 514L1633 410L1815 530L2000 530L2000 405L1815 345L1633 287L1452 376L1270 483L1089 466L907 466L726 466L544 373L363 355L181 448L0 293Z" fill="#013b2d"></path>
    <path d="M0 634L181 692L363 797L544 859L726 842L907 933L1089 829L1270 785L1452 724L1633 710L1815 797L2000 710L2000 525L1815 527L1633 408L1452 516L1270 622L1089 653L907 670L726 578L544 609L363 589L181 543L0 516Z" fill="#014537"></path>
    <path d="M0 994L181 1100L363 967L544 1024L726 1190L907 1247L1089 1008L1270 1082L1452 977L1633 1051L1815 1024L2000 1117L2000 705L1815 795L1633 705L1452 705L1270 764L1089 808L907 912L726 820L544 835L363 774L181 702L0 642Z" fill="#024f42"></path>
    <path d="M0 1500L181 1500L363 1500L544 1500L726 1500L907 1500L1089 1500L1270 1500L1452 1500L1633 1500L1815 1500L2000 1500L2000 1115L1815 1022L1633 1049L1452 973L1270 1079L1089 1244L907 1187L726 1022L544 965L363 1097L181 1099L0 992Z" fill="#02594e"></path>
</svg>
